<?xml version="1.0" standalone="no"?>
<!DOCTYPE svg PUBLIC "-//W3C//DTD SVG 20010904//EN"
 "http://www.w3.org/TR/2001/REC-SVG-20010904/DTD/svg10.dtd">
<svg version="1.0" xmlns="http://www.w3.org/2000/svg"
 width="48.000000pt" height="48.000000pt" viewBox="0 0 48.000000 48.000000"
 preserveAspectRatio="xMidYMid meet">

<style>
path {
    fill: #000000;
}
@media (prefers-color-scheme: dark) {
    path {
        fill: #ffffff;
    }
}
</style>

<g transform="translate(0.000000,48.000000) scale(0.100000,-0.100000)"
fill="#000000" stroke="none">
<path d="M40 366 c0 -50 4 -76 13 -80 10 -5 10 -7 0 -12 -19 -8 -17 -151 1
-170 8 -8 19 -14 25 -14 6 0 11 -7 11 -15 0 -9 9 -15 25 -15 14 0 25 -4 25
-10 0 -6 40 -10 100 -10 60 0 100 4 100 10 0 6 11 10 25 10 16 0 25 6 25 15 0
8 5 15 11 15 6 0 17 6 25 14 18 19 20 162 2 170 -10 5 -10 7 0 12 8 4 12 30
12 80 0 68 -2 74 -21 74 -22 0 -49 -22 -49 -39 0 -6 -7 -11 -15 -11 -8 0 -15
-4 -15 -10 0 -6 -40 -10 -100 -10 -60 0 -100 4 -100 10 0 6 -7 10 -15 10 -8 0
-15 5 -15 11 0 17 -27 39 -49 39 -19 0 -21 -6 -21 -74z"/>
</g>
</svg>
